# xmcd
#
# Track frame offsets:
#	182
#	19507
#	36097
#	49197
#	62727
#	77085
#	98972
#	121267
#	137967
#	154815
#	186415
#	197772
#	226052
#	241007
#
# Disc length: 3471
#
# Revision: 7
# Processed by: cddbd v1.5.1PL0 Copyright (c) Steve Scherf et al.
# Submitted via: ExactAudioCopy v0.90b4
# Normalized: r6:DSETVAR1
#
DISCID=b40d8d0e
DTITLE=Various Artist - Eyes Wide Shut
DYEAR=1999
DGENRE=Soundtrack
TTITLE0=György Ligeti (Dominic Harlan, piano) - Musica Ricercata, II (Mesto, Rigido E Ceremoniale)
TTITLE1=Dmitri Shostakovich (Royal Concertgebouw Orchestra) - Waltz 2 From Jazz Suite
TTITLE2=Chris Isaak - Baby Did A Bad Bad Thing
TTITLE3=Victor Silvester Orchestra - When I Fall In Love
TTITLE4=Oscar Peterson Trio - I Got It Bad (And That Ain't Good)
TTITLE5=Jocelyn Pook - Naval Officer
TTITLE6=Jocelyn Pook - The Dream
TTITLE7=Jocelyn Pook - Masked Ball
TTITLE8=Jocelyn Pook And The Jocelyn Pook Ensemble With Manickam Yogeswaran - Migrations
TTITLE9=Roy Gerson - If I Had You
TTITLE10=Peter Hughes Orchestra - Strangers In The Night
TTITLE11=Brad Mehldau - Blame It On My Youth
TTITLE12=Franz Liszt (Dominic Harlan, piano) - Grey Clouds
TTITLE13=György Ligeti (Dominic Harlan, piano) - Musica Ricercata, II (Mesto, Rigido E Ceremoniale) Reprise
EXTD=
EXTT0=
EXTT1=
EXTT2=
EXTT3=
EXTT4=
EXTT5=
EXTT6=
EXTT7=
EXTT8=
EXTT9=
EXTT10=
EXTT11=
EXTT12=
EXTT13=
PLAYORDER=
